PathFileType  4	(X/Y/Z) C:\Inversekin\DARPA\DARPA11\Files_W_HJCs\
DataRate	CameraRate	NumFrames	NumMarkers	Units	OrigDataRate	OrigDataStartFrame	OrigNumFrames
  100.0		  100.0		    8		     41		 mm	  100.0	      39	    153
Frame#	Time	R.Shoulder			L.Shoulder			R.Clavicle			L.Clavicle			R.Biceps			R.Elbow			R.Forearm			R.Wrist			L.Biceps			L.Elbow			L.Forearm			L.Wrist			R.ASIS			L.ASIS			R.PSIS			S2			L.PSIS			R.TH1			R.TH2			R.TH3			R.Knee			R.SH1			R.SH2			R.SH3			R.SH4			R.Ankle			R.Heel			R.MT5			R.Toe			L.TH1			L.TH2			L.TH3			L.TH4			L.Knee			L.SH1			L.SH2			L.SH3			L.Ankle			L.Heel			L.MT5			L.Toe			
		X1	Y1	Z1	X2	Y2	Z2	X3	Y3	Z3	X4	Y4	Z4	X5	Y5	Z5	X6	Y6	Z6	X7	Y7	Z7	X8	Y8	Z8	X9	Y9	Z9	X10	Y10	Z10	X11	Y11	Z11	X12	Y12	Z12	X13	Y13	Z13	X14	Y14	Z14	X15	Y15	Z15	X16	Y16	Z16	X17	Y17	Z17	X18	Y18	Z18	X19	Y19	Z19	X20	Y20	Z20	X21	Y21	Z21	X22	Y22	Z22	X23	Y23	Z23	X24	Y24	Z24	X25	Y25	Z25	X26	Y26	Z26	X27	Y27	Z27	X28	Y28	Z28	X29	Y29	Z29	X30	Y30	Z30	X31	Y31	Z31	X32	Y32	Z32	X33	Y33	Z33	X34	Y34	Z34	X35	Y35	Z35	X36	Y36	Z36	X37	Y37	Z37	X38	Y38	Z38	X39	Y39	Z39	X40	Y40	Z40	X41	Y41	Z41	

39	0.38000	408.013	1563.485	-303.429	677.864	1568.109	-296.749	511.290	1507.383	-196.724	565.467	1509.519	-194.519	201.699	1564.917	-325.328	114.342	1587.494	-377.849	109.203	1587.495	-226.295	97.428	1577.592	-109.983	859.793	1535.649	-324.609	980.135	1530.306	-342.519	998.057	1574.797	-205.362	1001.672	1594.311	-95.636	407.887	1022.226	-159.843	663.642	1012.360	-178.144	477.284	1035.254	-375.810	520.353	1013.728	-392.347	568.904	1033.008	-382.265	314.278	795.592	-204.894	309.464	790.416	-313.802	322.155	661.982	-317.828	325.631	528.977	-276.220	307.720	436.915	-266.585	288.582	326.254	-273.554	305.062	438.060	-350.756	293.084	318.479	-358.132	294.501	113.792	-313.902	337.392	37.521	-391.014	252.381	34.062	-201.094	350.757	56.017	-91.558	708.966	793.785	-172.547	701.339	662.544	-185.507	752.039	811.084	-268.853	734.954	678.915	-298.342	710.058	531.538	-296.149	716.722	426.671	-273.577	738.744	445.322	-366.385	746.670	329.578	-380.589	753.248	115.618	-331.564	706.622	35.964	-416.521	801.659	39.509	-230.987	712.632	58.057	-120.767
40	0.39000	407.991	1563.450	-303.150	677.820	1567.903	-296.357	511.194	1507.293	-196.366	565.536	1509.443	-194.234	201.460	1564.678	-324.912	114.466	1587.554	-377.293	109.099	1586.027	-225.608	97.472	1575.287	-109.493	859.838	1535.108	-324.273	980.311	1529.609	-342.039	998.201	1573.942	-204.901	1001.982	1593.378	-95.108	407.817	1022.165	-159.838	663.649	1012.260	-177.811	477.437	1035.162	-375.737	520.509	1013.697	-392.238	569.112	1032.893	-382.087	314.220	795.554	-205.050	309.531	790.401	-313.962	322.148	661.997	-317.947	325.632	528.989	-276.298	307.710	436.896	-266.666	288.569	326.238	-273.599	305.049	438.103	-350.851	293.185	318.452	-358.167	294.485	113.730	-313.909	337.362	37.451	-390.998	252.348	34.032	-201.118	350.866	55.881	-91.550	708.971	793.613	-172.332	701.051	662.296	-185.252	752.471	811.074	-268.398	734.787	678.663	-297.984	710.105	531.420	-295.995	716.743	426.588	-273.474	738.774	445.194	-366.229	746.899	329.549	-380.496	753.195	115.569	-331.562	706.625	35.849	-416.504	801.730	39.352	-231.012	712.689	57.907	-120.755
41	0.40000	408.018	1563.310	-302.859	677.894	1567.738	-295.986	511.088	1507.213	-196.055	565.674	1509.337	-193.995	201.269	1564.402	-324.566	114.233	1587.613	-376.803	108.831	1585.081	-225.101	97.126	1573.571	-109.114	859.844	1534.633	-323.979	980.439	1528.922	-341.613	998.451	1573.218	-204.342	1002.235	1592.737	-94.692	407.677	1022.205	-159.857	663.746	1012.184	-177.502	477.713	1035.110	-375.679	520.734	1013.697	-392.102	569.239	1032.776	-381.915	314.217	795.532	-205.160	309.555	790.319	-314.095	322.248	661.929	-318.065	325.658	528.872	-276.371	307.727	436.869	-266.778	288.549	326.198	-273.648	305.067	438.100	-350.919	293.262	318.374	-358.259	294.582	113.677	-313.906	337.350	37.342	-391.018	252.324	33.980	-201.111	350.823	55.815	-91.549	708.832	793.526	-172.079	701.124	662.211	-185.046	752.571	811.076	-268.047	734.814	678.611	-297.717	710.117	531.389	-295.851	716.837	426.514	-273.339	738.819	445.062	-366.062	746.988	329.442	-380.394	753.236	115.497	-331.550	706.617	35.752	-416.492	801.757	39.287	-231.000	712.732	57.787	-120.741
42	0.41000	407.894	1563.274	-302.590	678.142	1567.706	-295.559	510.938	1507.185	-195.781	565.351	1509.224	-193.648	201.353	1564.206	-324.229	114.088	1587.655	-376.297	108.818	1584.202	-224.671	97.176	1571.824	-108.826	860.072	1534.286	-323.639	980.525	1528.493	-341.082	998.579	1572.608	-203.703	1002.472	1591.853	-94.145	407.628	1022.078	-159.844	663.725	1012.240	-177.247	477.778	1035.120	-375.581	520.851	1013.693	-392.009	569.536	1032.751	-381.644	314.130	795.469	-205.292	309.592	790.315	-314.204	322.327	661.905	-318.227	325.692	528.798	-276.459	307.779	436.822	-266.888	288.517	326.167	-273.697	305.071	438.028	-351.020	293.295	318.400	-358.303	294.543	113.678	-313.935	337.282	37.258	-390.995	252.317	33.915	-201.112	350.824	55.717	-91.545	708.841	793.454	-171.863	700.888	662.161	-184.835	752.614	811.078	-267.752	734.736	678.504	-297.450	710.157	531.330	-295.713	716.848	426.541	-273.270	739.110	445.165	-365.890	747.263	329.439	-380.290	753.280	115.424	-331.531	706.705	35.778	-416.480	801.774	39.241	-230.997	712.737	57.757	-120.722
43	0.42000	407.854	1563.230	-302.359	678.420	1567.702	-295.113	510.898	1507.241	-195.552	565.283	1509.187	-193.371	201.300	1564.136	-323.998	114.103	1587.601	-375.927	108.778	1583.428	-224.175	97.159	1570.567	-108.533	860.228	1534.117	-323.200	980.613	1528.177	-340.414	998.576	1572.077	-203.122	1002.518	1591.150	-93.456	407.544	1021.977	-159.836	663.584	1012.073	-176.967	477.979	1035.303	-375.476	520.999	1013.763	-391.912	569.679	1032.829	-381.456	314.245	795.375	-205.428	309.740	790.339	-314.356	322.419	661.955	-318.323	325.721	528.801	-276.542	307.713	436.848	-267.006	288.569	326.082	-273.781	305.095	438.009	-351.107	293.218	318.446	-358.400	294.563	113.622	-313.930	337.267	37.270	-390.997	252.300	33.864	-201.122	350.863	55.686	-91.536	708.762	793.349	-171.594	700.793	662.058	-184.693	752.487	810.864	-267.487	734.556	678.496	-297.180	710.165	531.319	-295.626	716.889	426.454	-273.220	739.250	445.144	-365.778	747.240	329.422	-380.176	753.268	115.443	-331.518	706.762	35.846	-416.478	801.772	39.232	-230.996	712.813	57.703	-120.709
44	0.43000	407.691	1563.228	-302.166	678.313	1567.830	-294.742	511.156	1507.454	-196.567	565.237	1509.073	-193.101	201.268	1563.956	-323.743	113.999	1587.679	-375.598	108.676	1582.917	-223.805	97.295	1569.507	-108.272	860.355	1533.991	-322.720	980.769	1527.967	-339.932	998.753	1571.636	-202.612	1002.713	1590.753	-93.007	407.561	1021.891	-159.775	663.517	1012.069	-176.627	478.119	1035.452	-375.374	521.084	1013.942	-391.806	569.795	1033.042	-381.271	314.361	795.298	-205.550	309.785	790.378	-314.446	322.489	661.997	-318.442	325.733	528.658	-276.627	307.708	436.865	-267.091	288.557	326.068	-273.834	305.123	438.043	-351.191	293.242	318.486	-358.453	294.647	113.586	-313.937	337.262	37.290	-391.004	252.304	33.863	-201.140	350.833	55.773	-91.553	708.591	793.480	-171.394	700.758	662.097	-184.590	752.447	810.865	-267.188	734.567	678.574	-297.002	710.213	531.429	-295.523	716.874	426.518	-273.155	739.293	445.211	-365.724	747.263	329.474	-380.128	753.346	115.453	-331.483	706.844	35.942	-416.482	801.750	39.295	-230.993	712.714	57.674	-120.718
45	0.44000	407.623	1563.284	-302.027	678.412	1567.924	-294.378	510.832	1507.212	-195.205	565.098	1509.190	-192.772	201.333	1563.874	-323.435	113.961	1587.739	-375.302	108.933	1582.314	-223.531	97.092	1568.731	-108.119	860.476	1534.016	-322.198	980.890	1527.976	-339.389	998.840	1571.343	-201.911	1002.632	1590.417	-92.200	407.487	1021.928	-159.743	663.578	1012.102	-176.353	478.112	1035.562	-375.273	521.256	1014.102	-391.689	569.883	1033.169	-381.122	314.360	795.332	-205.666	309.901	790.486	-314.557	322.531	661.970	-318.540	325.722	528.758	-276.730	307.725	436.925	-267.176	288.566	326.148	-273.886	305.151	438.075	-351.270	293.278	318.585	-358.552	294.664	113.613	-313.959	337.261	37.345	-390.998	252.323	33.897	-201.120	350.829	55.865	-91.556	708.581	793.409	-171.202	700.601	662.055	-184.316	752.405	810.783	-266.990	734.516	678.482	-296.902	710.388	531.568	-295.415	716.858	426.590	-273.114	739.331	445.283	-365.669	747.506	329.699	-380.057	753.307	115.541	-331.483	706.855	36.042	-416.498	801.722	39.406	-230.973	712.693	57.760	-120.724
46	0.45000	407.666	1563.414	-301.922	678.434	1567.979	-294.051	510.786	1507.370	-195.048	564.969	1509.261	-192.544	201.338	1563.923	-323.187	113.980	1587.948	-375.030	108.792	1582.014	-223.286	97.257	1568.196	-107.975	860.403	1534.108	-321.665	981.085	1528.009	-338.756	998.754	1571.143	-201.168	1002.724	1590.132	-91.377	407.540	1021.903	-159.667	663.406	1012.134	-176.055	478.302	1035.691	-375.126	521.392	1014.297	-391.557	569.954	1033.432	-380.905	314.338	795.489	-205.780	309.955	790.606	-314.663	322.582	662.004	-318.613	325.740	528.809	-276.798	307.770	437.024	-267.243	288.570	326.217	-273.926	305.282	438.123	-351.385	293.330	318.685	-358.592	294.713	113.756	-313.982	337.240	37.473	-391.007	252.315	33.960	-201.123	350.779	55.995	-91.543	708.434	793.382	-171.019	700.497	661.982	-184.197	752.414	810.868	-266.710	734.527	678.590	-296.771	710.613	531.749	-295.316	716.816	426.693	-273.062	739.315	445.384	-365.638	747.456	329.801	-380.003	753.383	115.661	-331.433	706.816	36.146	-416.511	801.690	39.482	-230.978	712.726	57.884	-120.679
